<mxfile host="app.diagrams.net" modified="2024-02-05T07:13:48.814Z" agent="Mozilla/5.0 (Windows NT 10.0; Win64; x64) AppleWebKit/537.36 (KHTML, like Gecko) Chrome/121.0.0.0 Safari/537.36 Edg/121.0.0.0" version="23.0.2" etag="_4HBUJbs1uNvisEboX3Z" type="github">
  <diagram name="第 1 页" id="XBbYHZ9mPI3a1rhRg7sy">
    <mxGraphModel>
      <root>
        <mxCell id="0" />
        <mxCell id="1" parent="0" />
      </root>
    </mxGraphModel>
  </diagram>
</mxfile>
